<svg width="134" height="134" viewBox="0 0 134 134" fill="none" xmlns="http://www.w3.org/2000/svg">
<rect width="134" height="134" rx="37" fill="#0A0A0A"/>
<path d="M65.9464 47.1947C65.7562 46.6306 65.5598 46.0729 65.338 45.5215C63.6078 41.1674 60.3438 37.0542 56.5793 34.2783C51.0908 30.2221 43.4032 28.7897 37.2619 31.7685C32.8635 33.9043 29.663 38.0239 27.7617 42.5364C25.8604 47.0426 25.1315 51.948 24.6055 56.8091C24.5295 57.5126 24.4661 58.2161 24.4027 58.9259C24.0034 63.337 23.7309 67.5833 23.6232 71.0184C23.4774 75.6323 23.883 80.2525 24.6245 84.803C25.3724 89.3789 26.4561 93.8914 27.673 98.3595C27.8631 99.0567 28.0532 99.7602 28.2434 100.457C28.6109 101.712 29.9799 103.297 31.5833 103.297H38.4407C39.8223 103.297 42.1863 103.455 43.0863 102.048C43.4539 101.471 43.4919 100.635 43.5362 99.9757C43.5933 99.044 43.5996 98.1124 43.6313 97.1807C43.6376 96.9589 43.6503 96.7307 43.7517 96.5343C43.9862 96.0843 44.696 96.154 45.127 96.154C45.8939 96.154 46.6671 96.154 47.4339 96.154C48.4987 96.154 49.5697 96.154 50.6345 96.154C51.3823 96.154 52.7956 96.0716 53.1949 96.6737C53.4041 96.9842 53.3724 97.3962 53.3787 97.7701C53.4041 98.7525 53.4801 99.7285 53.6005 100.705C53.7019 101.516 53.8287 102.169 54.5132 102.682C55.6159 103.499 57.2194 103.309 58.5059 103.297C61.4529 103.259 64.4 103.297 67.3534 103.297C67.6195 103.297 67.9047 103.297 68.1139 103.132C68.5131 102.828 68.5638 102.105 68.6145 101.649C68.6843 101.034 68.6906 100.413 68.7476 99.7982C68.849 98.6194 69.0202 97.3962 69.0202 96.211C69.0645 95.6723 69.0962 95.14 69.1216 94.6012C70.0152 83.3137 69.9328 71.912 68.5131 60.6688C67.9427 56.1436 67.404 51.5424 65.959 47.1947H65.9464ZM43.4095 53.0191C43.1623 53.6085 42.744 54.1409 42.1546 54.4007C41.8504 54.5338 41.5145 54.5908 41.1786 54.5845C40.1202 54.5528 39.6766 53.9761 39.3724 52.9937C39.1569 52.2839 39.0618 51.517 39.0872 50.7755C39.1189 49.8629 39.385 48.7728 39.9745 48.0503C40.2153 47.7524 40.4878 47.5939 40.7603 47.5369C41.3624 47.4101 42.0025 47.7777 42.5285 48.2657C42.9468 48.6587 43.2447 49.153 43.4412 49.6917C43.8278 50.7375 43.8468 51.986 43.4095 53.0254V53.0191ZM50.8246 54.5908C46.9079 55.4528 47.1044 47.8538 50.0768 47.4925C52.7893 47.163 53.6322 53.9697 50.8246 54.5908Z" fill="#E56B94"/>
<path d="M71.3153 62.9762C71.854 64.4403 72.8363 65.2705 74.9278 64.5036C80.2324 62.5706 84.5167 62.0256 88.0722 62.2157C97.3506 62.7101 101.635 68.2429 105.995 67.2859C110.318 66.3416 110.216 62.184 106.496 45.4016C105.076 39.0004 100.228 34.3358 94.2324 32.0479C87.9644 29.6585 80.5747 29.0121 75.1243 33.607C71.6385 36.5414 68.9513 41.5736 68.5267 46.1114C68.2669 48.9254 69.5407 51.3654 70.1238 54.0526C70.4534 55.5864 70.6562 57.1518 70.8336 58.7109C70.9857 60.0038 70.8717 61.7657 71.3216 62.9826L71.3153 62.9762ZM91.8114 42.7587C94.524 42.4292 95.3669 49.2359 92.5593 49.857C88.6426 50.719 88.839 43.12 91.8114 42.7587ZM81.7091 43.3164C81.95 43.0186 82.2161 42.8601 82.495 42.8031C83.0971 42.6763 83.7372 43.0439 84.2632 43.5319C84.6815 43.9249 84.9794 44.4192 85.1759 44.9516C85.5625 45.9973 85.5815 47.2459 85.1442 48.2853C84.897 48.8747 84.485 49.4071 83.8893 49.6669C83.5851 49.8 83.2492 49.857 82.9133 49.8507C81.8549 49.819 81.4113 49.2423 81.107 48.2599C80.8916 47.5501 80.7965 46.7832 80.8218 46.0417C80.8535 45.1291 81.1134 44.0389 81.7091 43.3164Z" fill="#E56B94"/>
<path d="M109.629 80.685C108.558 74.3472 105.104 69.8537 98.0751 67.0968C92.5867 64.942 84.899 64.1751 78.7578 65.7595C77.4205 66.1018 76.115 66.5708 74.8728 67.1665C73.4088 67.87 72.0145 68.1742 71.9131 70.0565C71.799 72.167 72.1539 74.3979 72.1919 76.5274C72.3504 84.9567 72.0905 93.519 70.8673 101.866C70.8166 102.227 70.7596 102.614 70.9054 102.943C71.0638 103.298 71.5835 103.305 72.2616 103.298C73.6749 103.298 78.7388 103.298 80.1648 103.298C81.5907 103.298 82.5034 103.298 83.4033 102.424C83.5744 102.259 83.6822 102.043 83.7836 101.834C84.0561 101.257 84.0624 100.503 84.1132 99.8821C84.1829 99.0519 84.2019 98.2216 84.1892 97.3914C84.1829 97.0872 84.1575 96.8907 84.3033 96.6182C84.5695 96.1238 85.2603 96.1619 85.7419 96.1555C86.2236 96.1555 91.6107 96.1302 92.4029 96.1302C93.1951 96.1302 93.3345 96.2189 93.5246 96.3393C93.7148 96.4597 93.9049 96.859 93.9303 97.3153C94 98.6399 93.8859 100.174 94.2662 101.454C94.6781 102.829 95.8633 103.298 96.985 103.298C100.148 103.298 103.139 103.552 106.282 103.152C108.919 102.817 109.261 100.979 109.413 98.5639C109.673 94.4126 109.933 90.2677 109.996 86.1102C110.028 84.1708 109.908 82.3645 109.629 80.685ZM86.5722 81.7181C86.325 82.3075 85.9131 82.8399 85.3173 83.0997C85.0131 83.2328 84.6772 83.2898 84.3413 83.2835C83.2829 83.2518 82.8393 82.6751 82.5351 81.6927C82.3196 80.9829 82.2245 80.216 82.2499 79.4745C82.2816 78.5619 82.5414 77.4717 83.1371 76.7492C83.378 76.4514 83.6442 76.2929 83.923 76.2359C84.5251 76.1091 85.1715 76.4767 85.6912 76.9647C86.1095 77.3577 86.4074 77.852 86.6039 78.3844C86.9905 79.4365 87.0095 80.6787 86.5722 81.7181ZM93.9873 83.2898C90.0706 84.1518 90.2671 76.5528 93.2394 76.1915C95.952 75.8619 96.8012 82.6687 93.9873 83.2898Z" fill="#E56B94"/>
</svg>
