<svg width="63" height="39" version="1.1" xmlns="http://www.w3.org/2000/svg" desc="Created with imagetracer.js version 1.2.6" ><path fill="rgb(16,14,19)" stroke="rgb(16,14,19)" stroke-width="1" opacity="0.3764705882352941" d="M 14.5 11 L 15 28 L 17 28.5 L 15.5 29 L 14 27.5 L 14.5 11 Z " /><path fill="rgb(16,14,19)" stroke="rgb(16,14,19)" stroke-width="1" opacity="0.3764705882352941" d="M 35.5 20 L 37 22.5 L 35 23 L 35.5 20 Z " /><path fill="rgb(16,14,19)" stroke="rgb(16,14,19)" stroke-width="1" opacity="0.3764705882352941" d="M 50.5 26 L 51 27.5 L 49 28.5 L 50.5 26 Z " /><path fill="rgb(0,0,0)" stroke="rgb(0,0,0)" stroke-width="1" opacity="0" d="M 0 0 L 63 0 L 63 39 L 0 39 L 0 0 Z M 48 10 L 46 11 Q 41 14 41 20 L 38 12 L 36 11 Q 30 9 31 13 L 31 15 L 31 28 L 35 28 L 37 24 L 37 26 Q 38 29 43 28 L 45 24 L 47 29 Q 50 30 51 28 L 50 26 L 51 24 L 51 11 L 48 10 Z M 14 11 L 14 28 Q 15 30 19 29 Q 21 28 21 23 L 24 28 Q 25 30 30 29 Q 30 23 25 20 L 28 11 L 26 11 L 21 15 L 19 13 L 19 11 L 14 11 Z " /><path fill="rgb(245,244,245)" stroke="rgb(245,244,245)" stroke-width="1" opacity="0.06666666666666667" d="M 50.5 11 L 51 21.5 L 50 21.5 L 50.5 11 Z " /><path fill="rgb(245,244,245)" stroke="rgb(245,244,245)" stroke-width="1" opacity="0.06666666666666667" d="M 27.5 23 L 28.5 25 L 27.5 23 Z " /><path fill="rgb(245,244,245)" stroke="rgb(245,244,245)" stroke-width="1" opacity="0.06666666666666667" d="M 45.5 27 L 48 28.5 L 46.5 29 L 45.5 27 Z " /><path fill="rgb(245,244,245)" stroke="rgb(245,244,245)" stroke-width="1" opacity="0.06666666666666667" d="M 27.5 28 L 30 28.5 L 27.5 29 L 27.5 28 Z " /><path fill="rgb(169,168,168)" stroke="rgb(169,168,168)" stroke-width="1" opacity="0.3607843137254902" d="M 19.5 13 L 21 16.5 L 19 17 L 19.5 13 Z " /><path fill="rgb(169,168,168)" stroke="rgb(169,168,168)" stroke-width="1" opacity="0.3607843137254902" d="M 25.5 16 L 25 17.5 L 27 21.5 L 24 19.5 L 25.5 16 Z " /><path fill="rgb(169,168,168)" stroke="rgb(169,168,168)" stroke-width="1" opacity="0.3607843137254902" d="M 19.5 23 L 20 27.5 L 19 27.5 L 19.5 23 Z " /><path fill="rgb(169,168,168)" stroke="rgb(169,168,168)" stroke-width="1" opacity="0.3607843137254902" d="M 24.5 27 L 27 28.5 L 25.5 29 L 24.5 27 Z " /><path fill="rgb(246,245,246)" stroke="rgb(246,245,246)" stroke-width="1" opacity="0.9803921568627451" d="M 15 11 L 19 11 L 19 17 L 21 17 L 24.5 12 L 28 11 L 28 13.5 L 24 17.5 L 24 19.5 L 30 27.5 L 25.5 28 L 20.5 22 Q 17.8 23.4 19 28 L 15 27.5 L 15 11 Z " /><path fill="rgb(246,245,246)" stroke="rgb(246,245,246)" stroke-width="1" opacity="0.9803921568627451" d="M 31 11 L 36 11 L 36 12.5 L 40.5 22 L 45.5 11 Q 50 10.5 50 11.5 L 50 28 L 46 28 L 46 19.5 L 45 19.5 L 42 28 L 38 26.5 L 35.5 19 L 35 28 L 31 27.5 L 31 11 Z " /><path fill="rgb(95,96,97)" stroke="rgb(95,96,97)" stroke-width="1" opacity="0.396078431372549" d="M 44.5 21 L 46 24.5 L 44 24.5 L 43.5 26 L 43 24.5 L 44.5 21 Z " /><path fill="rgb(95,96,97)" stroke="rgb(95,96,97)" stroke-width="1" opacity="0.396078431372549" d="M 20.5 22 L 22.5 25 L 20.5 22 Z " /></svg>